<svg width="128" height="80" viewBox="0 0 128 80" fill="none" xmlns="http://www.w3.org/2000/svg">
<path fill-rule="evenodd" clip-rule="evenodd" d="M110.884 19.7092H127.089L125.496 28.3655H118.917L117.392 36.5369H123.28L121.825 44.7089H115.938L109.637 80.0968H100.012L110.884 19.7092ZM107.421 19.7092H97.5879L91.6314 51.4957C91.2166 53.6431 90.8699 55.027 90.5934 55.6502C90.2468 56.2046 89.8306 56.4811 89.2075 56.4811C88.6544 56.4811 88.3078 56.2046 88.2376 55.7196C88.1688 55.1653 88.3078 53.9877 88.6538 52.0487L94.7472 19.7086H84.8439L80.0649 45.262C79.1652 50.1098 78.6108 53.2957 78.4726 54.8186C78.4038 56.3428 78.6108 57.7969 79.2354 59.1815C79.7884 60.5674 80.8965 61.6748 82.4888 62.5064C84.0825 63.4061 85.952 63.8222 88.237 63.8222C90.3142 63.8222 92.1149 63.4756 93.7774 62.7141C95.4398 62.0215 96.8244 60.9134 98.002 59.5275C99.1796 58.1429 100.011 56.7576 100.426 55.4411C100.911 54.1266 101.396 51.841 102.018 48.5161L107.421 19.7092ZM67.186 47.4802C67.6008 42.5629 68.224 36.607 69.125 29.4048C66.5629 37.6456 64.8309 43.6009 63.9306 47.4802H67.186ZM77.2269 19.7092L74.1799 62.9219H65.1081L66.078 55.0971H62.6154L60.5375 62.9219H50.7044L64.5544 19.7092H77.2269ZM56.729 19.7092H48.4187L44.8173 39.1692L42.8783 19.7092H34.6375L26.5349 62.9219H34.8452L38.5154 43.2555L39.9695 62.9219H48.6258L56.729 19.7092ZM30.2058 20.0559L22.0338 39.5846L24.0422 62.9219H14.9698L13.308 47.4802L10.3999 62.9219H0.911377L10.8147 -0.0966797H20.3018L15.4541 34.3909L21.4794 20.0559H30.2058Z" fill="#00ACEC"/>
</svg>
