<svg width="136" height="35" viewBox="0 0 136 35" fill="none" xmlns="http://www.w3.org/2000/svg">
<path fill-rule="evenodd" clip-rule="evenodd" d="M10.0081 10.1584C12.8218 7.64606 14.7313 7.34392 18.7005 7.34392V16.0872C17.9975 16.0371 17.2937 15.9862 16.5906 15.9862C10.5107 15.9862 10.4105 19.9555 10.3596 21.6638V33.9238H0.0584106V7.7463H10.0074V10.1584H10.0081ZM20.4938 15.7357C20.8954 13.5248 21.4481 10.7612 25.1668 8.80162C28.0815 7.29454 31.7995 7.04323 34.513 7.04323C46.874 7.04323 46.874 13.4246 46.874 16.5397V30.7085C46.874 32.4175 47.025 32.87 47.7782 33.9246H37.578V31.9149C36.2713 32.8191 33.86 34.5274 28.9858 34.5274C22.4534 34.5274 19.5895 30.5581 19.5895 26.1364C19.5895 24.5785 19.9411 22.4184 21.8004 20.5591C24.1616 18.147 26.9753 17.7454 31.5482 17.1425C34.412 16.7401 35.5174 16.4896 37.0754 16.0371C37.0253 14.2787 36.5226 13.0723 33.5579 13.0723C31.1966 13.0723 30.543 13.6759 30.1914 15.4844L20.4938 15.7357V15.7357ZM33.9595 22.8208C33.1054 23.0212 32.2011 23.2232 31.2969 23.5239C29.2865 24.3279 29.1862 25.5343 29.1862 25.8357C29.1862 26.5395 29.7898 27.8461 31.7486 27.8461C33.2063 27.8461 35.6177 26.8917 36.5227 24.8813C37.0245 23.7766 37.0245 22.7206 37.0245 21.8163C36.02 22.1671 35.0148 22.5194 33.9595 22.8208V22.8208ZM54.2503 24.4281C55.2047 25.3817 56.1598 26.2366 58.1695 27.0907C60.0288 27.8447 61.435 27.9449 62.2898 27.9449C63.5456 27.9449 65.0033 27.4931 65.0033 26.3376C65.0033 25.0309 63.4454 24.7796 62.3901 24.6286C61.4858 24.4775 59.3251 24.126 56.9638 23.4222C54.5518 22.7191 49.7785 21.3123 49.7785 15.7851C49.7785 13.4732 50.8338 11.3633 52.391 9.85549C55.456 6.94155 59.8778 6.84059 61.586 6.84059C63.5456 6.84059 65.5052 7.09189 67.4648 7.54438C71.0317 8.39852 72.5395 9.50396 73.9965 10.6094L68.4191 15.6841C66.6608 14.5787 64.5 13.2219 61.7364 13.2219C61.3347 13.2219 59.5255 13.2219 59.5255 14.5787C59.5255 15.533 60.2293 15.6841 63.696 16.539C68.3182 17.5936 69.4244 17.8449 70.6801 18.4978C73.2934 19.9054 74.7504 22.3167 74.7504 25.2815C74.7504 30.4071 70.4804 34.9283 62.3901 34.9283C54.9534 34.9283 50.6827 31.5118 48.4718 29.7033L54.2503 24.4281V24.4281ZM103.719 26.9404C103.065 28.3473 102.513 29.4527 101.207 30.7586C99.7499 32.2664 96.382 34.929 90.3536 34.929C81.7614 34.929 76.4855 29.1012 76.4855 20.7094C76.4855 16.3886 78.0434 12.8711 80.2035 10.6602C83.8205 6.89216 88.9954 6.69097 90.9564 6.69097C92.7156 6.69097 97.6893 6.74109 101.659 10.7612C102.664 11.7664 103.116 12.4695 103.719 13.474L95.8307 17.9458C95.177 15.6347 93.9212 13.9766 91.4583 13.9766C88.2938 13.9766 86.7359 17.091 86.7359 21.0108C86.7359 23.0714 87.1375 26.9898 91.207 26.9898C94.3715 26.9898 95.3775 23.9756 95.83 22.6181L103.719 26.9404V26.9404ZM105.868 -1.59982H116.169V10.5099C117.123 9.35361 119.134 6.7912 124.51 6.7912C127.474 6.7912 130.137 7.79568 131.744 9.40373C133.907 11.6647 134.005 14.5787 134.106 16.8912V33.9238H123.806V19.052C123.756 17.8957 123.705 15.3333 120.088 15.3333C116.269 15.3333 116.22 18.0461 116.22 19.2524V33.9238H105.868V-1.59982V-1.59982ZM131.447 -1.57222H132.885C133.739 -1.57222 134.162 -1.21124 134.162 -0.488567C134.162 0.233382 133.703 0.533345 133.22 0.612513L134.302 2.30408H133.659L132.593 0.621955H132.012V2.30408H131.447V-1.57222V-1.57222ZM132.012 0.109908H132.682C133.22 0.109908 133.599 0.0307427 133.599 -0.489293C133.599 -0.895298 133.237 -1.06235 132.735 -1.06235H132.013V0.109908H132.012ZM132.646 -2.92968C133.079 -2.93035 133.508 -2.84558 133.908 -2.68022C134.308 -2.51485 134.672 -2.27215 134.978 -1.96602C135.284 -1.6599 135.527 -1.29636 135.692 -0.896261C135.858 -0.49616 135.942 -0.0673611 135.942 0.365566C135.942 0.798493 135.858 1.2273 135.692 1.6274C135.527 2.0275 135.284 2.39103 134.978 2.69716C134.672 3.00328 134.308 3.24598 133.908 3.41135C133.508 3.57671 133.079 3.66149 132.646 3.66082C132.214 3.66149 131.785 3.57671 131.385 3.41135C130.985 3.24598 130.621 3.00328 130.315 2.69716C130.009 2.39103 129.766 2.0275 129.601 1.6274C129.435 1.2273 129.351 0.798493 129.351 0.365566C129.351 -0.0673611 129.435 -0.49616 129.601 -0.896261C129.766 -1.29636 130.009 -1.6599 130.315 -1.96602C130.621 -2.27215 130.985 -2.51485 131.385 -2.68022C131.785 -2.84558 132.214 -2.93035 132.646 -2.92968V-2.92968ZM132.646 3.15023C134.135 3.15023 135.377 1.88137 135.377 0.366292C135.377 -1.14878 134.135 -2.41764 132.646 -2.41764C131.157 -2.41764 129.914 -1.14878 129.914 0.366292C129.914 1.88137 131.157 3.15023 132.646 3.15023Z" fill="#CC2229"/>
</svg>
