<svg width="188" height="41" viewBox="0 0 188 41" fill="none" xmlns="http://www.w3.org/2000/svg">
<path d="M148.4 9.08008H147.6C142.79 9.08008 138.04 10.3301 133.01 11.6501L131.52 12.0301L131.58 18.2901V40.6201H136.44V22.2301L136.58 15.0701L137.27 14.5101C139.423 12.8375 142.109 12.0025 144.83 12.1601C150.2 12.1601 153.95 16.6301 153.95 23.0201V40.6201H158.81V22.0001C158.81 11.1301 152.28 9.24008 148.4 9.08008Z" fill="#273D8B"/>
<path d="M187.76 12.41V9.07998H179.83V0.22998H175V30C175 34.14 175.71 36.8 177.27 38.42C178.097 39.2142 179.079 39.83 180.154 40.2291C181.229 40.6282 182.375 40.8021 183.52 40.74C184.962 40.755 186.401 40.6074 187.81 40.3V37.37C187.38 37.37 186.91 37.37 186.34 37.37C179.88 37.37 179.88 31.06 179.88 28.99V12.41H187.76Z" fill="#273D8B"/>
<path d="M113.37 9.08008C110.352 9.07833 107.353 9.56461 104.49 10.5201V12.5801C106.868 11.7237 109.373 11.2741 111.9 11.2501C112.459 11.2495 113.016 11.2863 113.57 11.3601C120.71 12.0701 121.27 17.3601 121.27 18.9501V21.5001L119.27 21.4401H118.27C116.84 21.4401 115.15 21.5301 113.51 21.7001C104.92 22.5401 100.57 25.6401 100.57 30.9001C100.57 37.3601 105.89 40.6401 116.39 40.6401H126.09V21.2201C126.14 12.9401 122.08 9.08008 113.37 9.08008ZM121.27 39.0801H119.34C117.255 39.1071 115.171 38.9969 113.1 38.7501C111.1 38.4601 105.1 37.5801 105.1 31.3701C105.1 29.0801 106.1 25.0101 113.1 23.6301C115.188 23.2529 117.308 23.0788 119.43 23.1101H121.36L121.27 39.0801Z" fill="#273D8B"/>
<path d="M69 9.07995C67.3445 9.04706 65.6981 9.33221 64.15 9.91994C60.45 11.4899 58.67 14.5599 58.7 19.3099L58.84 40.6699H63.94L63.82 22.5699C63.82 18.5199 63.75 12.3899 71.4 12.3399C72.09 12.3399 72.84 12.3399 73.66 12.4599V9.61994C72.1314 9.26851 70.5685 9.08741 69 9.07995V9.07995Z" fill="#273D8B"/>
<path d="M0.660034 25.2799C0.660034 34.8599 6.92004 40.8099 16.99 40.8099C19.1347 40.7943 21.2699 40.5224 23.35 39.9999V37.3199C21.824 37.6372 20.2686 37.7914 18.71 37.7799C11.2 37.7799 6.00003 32.4899 6.00003 24.9299C5.9378 23.2088 6.21973 21.4927 6.82932 19.882C7.43891 18.2713 8.36389 16.7985 9.55003 15.5499C10.7617 14.3754 12.1967 13.456 13.7701 12.8462C15.3435 12.2364 17.0234 11.9486 18.71 11.9999C20.2711 11.9816 21.8287 12.1495 23.35 12.4999V9.63989C21.7398 9.31719 20.1023 9.14975 18.46 9.13989C7.81003 9.13989 0.660034 15.6299 0.660034 25.2799Z" fill="#273D8B"/>
<path d="M88.49 23.4299C84.38 21.9999 81 20.5899 81 16.8699C81 13.5199 83.71 11.3599 87.92 11.3599C89.7838 11.3873 91.6271 11.7532 93.36 12.4399V10.3799C91.3479 9.50436 89.1743 9.06145 86.98 9.0799C80.39 9.0799 76.3 12.4399 76.3 17.8999C76.18 22.1899 80.8 24.6199 84.7 25.8999C89.21 27.4199 91.82 29.0199 91.82 32.7299C91.82 36.2799 88.97 38.4099 84.21 38.4099C81.6161 38.311 79.0543 37.8013 76.62 36.8999V39.5999C79.0596 40.3755 81.6003 40.7866 84.16 40.8199C91.96 40.8199 96.62 37.5199 96.62 32.0099C96.54 27.9999 94.11 25.3799 88.49 23.4299Z" fill="#273D8B"/>
<path d="M41.43 9.08008H40.53C30.55 9.53008 26 17.8901 26 25.4701C26 34.4701 31.3 40.0901 40.43 40.7601H42.34C45.2996 40.77 48.2479 40.3935 51.11 39.6401V37.2801C48.6346 37.8497 46.1 38.1216 43.56 38.0901C42.3826 38.083 41.2081 37.9726 40.05 37.7601C34.36 36.6001 30.89 32.7101 30.75 27.3501V25.3501H54.65C54.65 24.8901 54.65 24.3501 54.65 23.7301C54.67 20.3101 53.72 9.08008 41.43 9.08008ZM50.18 21.3901V23.2801H30.54L30.78 21.1401C31.26 16.6601 34.06 11.3401 40.27 11.1401H40.87C42.0714 11.0941 43.2693 11.2959 44.3893 11.7328C45.5092 12.1698 46.5273 12.8326 47.38 13.6801C49.26 15.8004 50.2613 18.5575 50.18 21.3901V21.3901Z" fill="#273D8B"/>
<path d="M169.56 9.08008H164.4V40.6201H169.56V9.08008Z" fill="#273D8B"/>
<path d="M167 0.229971C166.661 0.210295 166.322 0.261532 166.004 0.380408C165.686 0.499283 165.396 0.683181 165.154 0.92035C164.911 1.15752 164.72 1.44274 164.594 1.75778C164.468 2.07282 164.408 2.41075 164.42 2.74997C164.461 3.41036 164.752 4.03027 165.234 4.48341C165.717 4.93654 166.353 5.1888 167.015 5.1888C167.677 5.1888 168.313 4.93654 168.796 4.48341C169.278 4.03027 169.569 3.41036 169.61 2.74997C169.619 2.40889 169.557 2.06967 169.428 1.75387C169.299 1.43808 169.105 1.15261 168.86 0.915616C168.614 0.678619 168.322 0.495275 168.002 0.377238C167.682 0.2592 167.341 0.209049 167 0.229971V0.229971Z" fill="#273D8B"/>
</svg>
