<svg width="26" height="27" viewBox="0 0 26 27" fill="none" xmlns="http://www.w3.org/2000/svg">
<path d="M13.302 26.1783C20.3042 26.1783 26.0006 20.482 26.0006 13.4798C26.0006 6.4776 20.3042 0.78125 13.302 0.78125C6.29986 0.78125 0.603516 6.4776 0.603516 13.4798C0.603516 20.482 6.29986 26.1783 13.302 26.1783ZM13.302 2.36857C19.4291 2.36857 24.4133 7.35274 24.4133 13.4798C24.4133 19.6068 19.4291 24.591 13.302 24.591C7.175 24.591 2.19083 19.6068 2.19083 13.4798C2.19083 7.35274 7.175 2.36857 13.302 2.36857Z" fill="#2B6BA0"/>
<path d="M8.95936 15.761L10.6186 15.0403L10.153 15.507C10.0038 15.6562 9.92021 15.8583 9.92021 16.0679V19.1737C9.92021 19.8848 10.7795 20.2298 11.2747 19.7346L12.9403 18.0689L16.57 19.8838C17.0399 20.1187 17.6081 19.8404 17.7055 19.3155L19.7764 7.92811C19.8854 7.3154 19.2822 6.82016 18.7055 7.04662L5.24927 12.3133C4.64609 12.5483 4.56567 13.3737 5.1117 13.7218L8.21649 15.7028C8.43872 15.8446 8.71914 15.8668 8.95936 15.761V15.761ZM17.9605 9.04452L16.334 17.9917L13.1382 16.3949C12.8292 16.2404 12.461 16.3049 12.2229 16.5441L11.5075 17.2594V16.3991L14.6896 13.217C15.3065 12.6001 14.6123 11.5821 13.8123 11.9281L8.71491 14.1398L7.28209 13.2255L17.9605 9.04452Z" fill="#2B6BA0"/>
</svg>
