<svg width="25" height="28" viewBox="0 0 25 28" fill="none" xmlns="http://www.w3.org/2000/svg">
<path d="M12.1671 0.740335C11.3764 0.744867 10.5834 0.792445 9.78363 0.889867C8.25433 1.07791 6.73863 1.39057 5.28409 2.05893C2.97089 3.12151 1.33058 4.92494 0.854796 7.54627C0.653155 8.6519 0.49003 9.77338 0.39714 10.9017C0.218155 13.0925 0.329171 15.2902 0.949952 17.4493C1.43933 19.1508 2.34105 20.6801 3.92019 21.6724C4.58855 22.0916 5.46988 22.2955 5.9298 22.5085C6.05894 22.5696 6.09066 22.6059 6.09745 22.6149C6.10425 22.6217 6.12238 22.6376 6.12011 22.7735C6.10425 24.1601 6.12011 26.8426 6.12011 26.8426L6.12238 27.4203H7.15777L7.32542 27.2572C7.32542 27.2572 9.95581 24.7265 10.9074 23.6843C11.0796 23.4985 11.1679 23.3943 11.186 23.383C11.2019 23.3717 11.1747 23.3649 11.3514 23.3603C12.5998 23.3354 13.8459 23.2878 15.092 23.2199C16.7346 23.1292 18.4089 22.9729 20.0197 22.3C21.4221 21.7132 22.5935 20.7549 23.3026 19.3185C24.0276 17.8458 24.415 16.2848 24.56 14.6694C24.8002 11.9801 24.7164 9.28627 23.9732 6.63096C23.536 5.07448 22.6569 3.75815 21.3089 2.82924C19.6957 1.71909 17.8764 1.30221 16.0957 1.03713C15.0557 0.88307 14.009 0.781117 12.9578 0.749398C12.695 0.742601 12.4321 0.73807 12.1671 0.740335ZM12.926 1.9094C13.9252 1.93659 14.9243 2.03401 15.9257 2.18354C17.6431 2.43955 19.263 2.82924 20.6518 3.78534C21.7778 4.56018 22.4802 5.6069 22.8563 6.94135C23.5496 9.42447 23.6379 11.9688 23.4046 14.5674C23.2709 16.065 22.9152 17.4765 22.2604 18.8064C21.6827 19.98 20.781 20.7254 19.5711 21.2306C18.1664 21.8174 16.6394 21.9738 15.0308 22.0621C13.7983 22.1301 12.5635 22.1754 11.3288 22.2003C11.0184 22.2071 10.7148 22.2887 10.4996 22.4473C10.2843 22.6059 10.1869 22.7531 10.0532 22.8981C9.37355 23.6413 8.0187 24.9485 7.28011 25.6645C7.27558 24.799 7.26878 23.7523 7.28011 22.7871C7.28464 22.4903 7.21667 22.1867 7.04675 21.9466C6.87683 21.7064 6.64347 21.5614 6.41917 21.4572C5.76441 21.1536 4.908 20.9225 4.53644 20.6892C3.23823 19.8735 2.50191 18.6501 2.06464 17.1276C1.49144 15.1361 1.38269 13.0857 1.55261 10.9991C1.64323 9.91612 1.79956 8.83088 1.99667 7.75471C2.40902 5.48682 3.70495 4.05948 5.76667 3.11244C7.06941 2.51432 8.4605 2.21979 9.92636 2.0408C10.9255 1.91846 11.9246 1.87994 12.926 1.9094ZM13.1707 4.80033C12.6927 4.80033 12.2282 4.85471 11.7774 4.9544C11.467 5.0269 11.2699 5.33729 11.3401 5.64994C11.4103 5.9626 11.723 6.15744 12.0357 6.08721C12.4004 6.00338 12.781 5.96033 13.1707 5.96033C16.0028 5.96033 18.2865 8.24408 18.2865 11.0738C18.2865 11.4658 18.2435 11.8464 18.1596 12.2135C18.0894 12.5238 18.2843 12.8365 18.5969 12.9067C18.9096 12.977 19.22 12.7799 19.2902 12.4672C19.3921 12.0186 19.4465 11.5542 19.4465 11.0738C19.4465 7.61651 16.6303 4.80033 13.1707 4.80033ZM7.38433 5.9626C7.28917 5.95807 7.19175 5.96487 7.0898 5.98752C6.03628 6.22088 4.98956 6.9844 4.96011 8.3483C4.98956 8.53862 4.9873 8.74252 5.05753 8.91471C5.40191 9.75752 5.70097 10.6275 6.13144 11.425C8.22714 15.2992 11.3968 17.9931 15.4364 19.7036C15.9189 19.9075 16.4174 19.9506 16.9045 19.7467C17.5751 19.468 18.1438 19.0375 18.5221 18.419C19.041 17.5694 19.0478 16.9803 18.1936 16.3528C17.634 15.9404 17.0835 15.5167 16.5171 15.1135C15.6539 14.5017 14.7204 14.3953 14.077 15.4692C14.043 15.5235 13.9932 15.5688 13.9501 15.6142C13.6193 15.9653 13.2138 16.0514 12.7833 15.8747C11.1498 15.2018 9.88784 14.1166 9.12659 12.5012C8.678 11.5519 8.80035 11.0761 9.63863 10.444C9.72245 10.3828 9.80175 10.3171 9.87878 10.2469C10.2458 9.91158 10.3432 9.51283 10.1257 9.06197C9.63409 8.03338 8.97933 7.1158 8.15011 6.3251C7.92581 6.11213 7.6698 5.97846 7.38433 5.9626ZM13.1617 6.54033C12.9057 6.54033 12.6519 6.56072 12.4027 6.60377C12.192 6.63096 12.013 6.77143 11.936 6.96854C11.8589 7.16791 11.8975 7.39221 12.0334 7.55533C12.1716 7.71619 12.3891 7.79096 12.5975 7.74565C12.7788 7.71619 12.9691 7.70033 13.1617 7.70033C15.0467 7.70033 16.5601 9.21377 16.5601 11.0988C16.5601 11.2914 16.5443 11.4817 16.5148 11.6629C16.4695 11.8713 16.5443 12.0888 16.7051 12.2271C16.8682 12.363 17.0925 12.4015 17.2919 12.3245C17.489 12.2474 17.6295 12.0685 17.6567 11.8578C17.6997 11.6085 17.7201 11.3548 17.7201 11.0988C17.7201 8.58846 15.672 6.54033 13.1617 6.54033ZM13.0801 8.28033C12.8717 8.27807 12.6768 8.38682 12.5703 8.56807C12.4661 8.74932 12.4661 8.97135 12.5703 9.1526C12.6768 9.33385 12.8717 9.4426 13.0801 9.44033C14.0475 9.44033 14.8201 10.2129 14.8201 11.1803C14.8178 11.3888 14.9266 11.5836 15.1078 11.6901C15.2891 11.7943 15.5111 11.7943 15.6924 11.6901C15.8736 11.5836 15.9824 11.3888 15.9801 11.1803C15.9801 9.58533 14.6751 8.28033 13.0801 8.28033Z" fill="#5C4CBB"/>
</svg>
